<svg xmlns="http://www.w3.org/2000/svg" viewBox="0 0 800 600" role="img" aria-label="Placeholder — THE ARENA — BULL RIDING — REPLACE WITH REAL PHOTO">
  <rect width="800" height="600" fill="#16181D"/>
  <rect width="800" height="600" fill="url(#gph-arena)" opacity=".55"/>
  <defs><linearGradient id="gph-arena" x1="0" y1="0" x2="1" y2="1">
    <stop offset="0" stop-color="#23262E"/><stop offset="1" stop-color="#16181D"/>
  </linearGradient></defs>
  <g fill="none" stroke="#7A8B99" stroke-opacity=".14" stroke-width="1.5">
    <path d="M-20 432.0 Q 176.0 348.0 384.0 420.0 T 820 372.0"/>
    <path d="M-20 480.0 Q 200.0 408.00000000000006 416.0 468.0 T 820 432.0"/>
    <path d="M-20 360.0 Q 240.0 276.0 480.0 348.0 T 820 300.0"/>
    <path d="M-20 204.00000000000003 Q 280.0 132.0 520.0 192.0 T 820 156.0" stroke-opacity=".08"/>
  </g>

  <g>
    <path d="M240 330 q -60 -60 -30 -120 q 70 10 84 78 M560 330 q 60 -60 30 -120 q -70 10 -84 78"
          fill="none" stroke="#2B2F39" stroke-width="26" stroke-linecap="round"/>
    <path d="M294 288 q 106 -60 212 0" fill="none" stroke="#2B2F39" stroke-width="30" stroke-linecap="round"/>
    <text x="400" y="440" fill="#E8871E" font-family="Arial Black, Arial" font-size="96" font-weight="900" text-anchor="middle">8.0</text>
    <text x="400" y="474" fill="#7A8B99" font-family="Arial" font-size="17" letter-spacing="7" text-anchor="middle">SECONDS OF COMMITMENT</text>
  </g>
  <g font-family="Arial, sans-serif">
    <rect x="28" y="514" width="8" height="52" fill="#E8871E"/>
    <text x="48" y="538" fill="#EDE6DA" font-size="21" font-weight="bold" letter-spacing="3">PHOTO / VIDEO SLOT</text>
    <text x="48" y="560" fill="#7A8B99" font-size="14" letter-spacing="2">THE ARENA — BULL RIDING — REPLACE WITH REAL PHOTO</text>
  </g>
  <g stroke="#EDE6DA" stroke-opacity=".25" stroke-width="2">
    <path d="M16 40 V16 H40"/> <path d="M760 16 H784 V40"/>
    <path d="M784 560 V584 H760"/> <path d="M40 584 H16 V560"/>
  </g>
</svg>