<svg xmlns="http://www.w3.org/2000/svg" viewBox="0 0 800 600" role="img" aria-label="Placeholder — LAND CLEARING — REPLACE WITH REAL JOB PHOTO">
  <rect width="800" height="600" fill="#16181D"/>
  <rect width="800" height="600" fill="url(#gph-clearing)" opacity=".55"/>
  <defs><linearGradient id="gph-clearing" x1="0" y1="0" x2="1" y2="1">
    <stop offset="0" stop-color="#23262E"/><stop offset="1" stop-color="#16181D"/>
  </linearGradient></defs>
  <g fill="none" stroke="#7A8B99" stroke-opacity=".14" stroke-width="1.5">
    <path d="M-20 432.0 Q 176.0 348.0 384.0 420.0 T 820 372.0"/>
    <path d="M-20 480.0 Q 200.0 408.00000000000006 416.0 468.0 T 820 432.0"/>
    <path d="M-20 360.0 Q 240.0 276.0 480.0 348.0 T 820 300.0"/>
    <path d="M-20 204.00000000000003 Q 280.0 132.0 520.0 192.0 T 820 156.0" stroke-opacity=".08"/>
  </g>

  <g>
    <rect x="0" y="470" width="800" height="6" fill="#2B2F39"/>
    <rect x="330" y="368" width="150" height="62" rx="10" fill="#2B2F39"/>
    <rect x="352" y="330" width="80" height="48" rx="6" fill="#2B2F39"/>
    <rect x="362" y="340" width="38" height="26" fill="#16181D"/>
    <circle cx="360" cy="442" r="22" fill="#16181D" stroke="#7A8B99" stroke-opacity=".4" stroke-width="3"/>
    <circle cx="448" cy="442" r="22" fill="#16181D" stroke="#7A8B99" stroke-opacity=".4" stroke-width="3"/>
    <path d="M480 380 L540 360 L556 396 L500 412 Z" fill="#2B2F39"/>
    <path d="M540 360 L586 330 M556 396 L604 372 M548 378 L596 352" stroke="#E8871E" stroke-width="5" stroke-linecap="round"/>
    <path d="M170 470 v-34 q0 -10 12 -10 h20 q12 0 12 10 v34" fill="#2B2F39"/>
    <path d="M236 470 v-24 q0 -8 10 -8 h16 q10 0 10 8 v24" fill="#2B2F39"/>
    <path d="M660 470 v-30 q0 -9 11 -9 h18 q11 0 11 9 v30" fill="#2B2F39"/>
  </g>
  <g font-family="Arial, sans-serif">
    <rect x="28" y="514" width="8" height="52" fill="#E8871E"/>
    <text x="48" y="538" fill="#EDE6DA" font-size="21" font-weight="bold" letter-spacing="3">JOB PHOTO SLOT</text>
    <text x="48" y="560" fill="#7A8B99" font-size="14" letter-spacing="2">LAND CLEARING — REPLACE WITH REAL JOB PHOTO</text>
  </g>
  <g stroke="#EDE6DA" stroke-opacity=".25" stroke-width="2">
    <path d="M16 40 V16 H40"/> <path d="M760 16 H784 V40"/>
    <path d="M784 560 V584 H760"/> <path d="M40 584 H16 V560"/>
  </g>
</svg>