<svg xmlns="http://www.w3.org/2000/svg" viewBox="0 0 800 600" role="img" aria-label="Placeholder — DRAINAGE / FRENCH DRAIN — REPLACE WITH REAL JOB PHOTO">
  <rect width="800" height="600" fill="#16181D"/>
  <rect width="800" height="600" fill="url(#gph-drainage)" opacity=".55"/>
  <defs><linearGradient id="gph-drainage" x1="0" y1="0" x2="1" y2="1">
    <stop offset="0" stop-color="#23262E"/><stop offset="1" stop-color="#16181D"/>
  </linearGradient></defs>
  <g fill="none" stroke="#7A8B99" stroke-opacity=".14" stroke-width="1.5">
    <path d="M-20 432.0 Q 176.0 348.0 384.0 420.0 T 820 372.0"/>
    <path d="M-20 480.0 Q 200.0 408.00000000000006 416.0 468.0 T 820 432.0"/>
    <path d="M-20 360.0 Q 240.0 276.0 480.0 348.0 T 820 300.0"/>
    <path d="M-20 204.00000000000003 Q 280.0 132.0 520.0 192.0 T 820 156.0" stroke-opacity=".08"/>
  </g>

  <g>
    <path d="M0 300 L250 300 L290 360 L510 360 L550 300 L800 300 L800 600 L0 600 Z" fill="#23262E" opacity=".6"/>
    <path d="M290 360 L290 470 L510 470 L510 360" fill="none" stroke="#7A8B99" stroke-opacity=".5" stroke-width="3"/>
    <g fill="#7A8B99" fill-opacity=".45">
      <circle cx="320" cy="395" r="4"/><circle cx="345" cy="412" r="5"/><circle cx="372" cy="392" r="4"/>
      <circle cx="402" cy="410" r="5"/><circle cx="432" cy="394" r="4"/><circle cx="462" cy="412" r="5"/>
      <circle cx="330" cy="438" r="5"/><circle cx="390" cy="440" r="4"/><circle cx="450" cy="438" r="5"/>
    </g>
    <circle cx="400" cy="452" r="26" fill="#16181D" stroke="#E8871E" stroke-width="5"/>
    <circle cx="392" cy="446" r="3" fill="#E8871E"/><circle cx="408" cy="446" r="3" fill="#E8871E"/>
    <circle cx="400" cy="460" r="3" fill="#E8871E"/>
    <path d="M180 250 q 20 14 0 30 M215 240 q 20 14 0 30 M250 252 q 20 14 0 30"
          stroke="#7A8B99" stroke-width="4" fill="none" stroke-linecap="round" stroke-opacity=".7"/>
    <path d="M540 452 H 700" stroke="#E8871E" stroke-width="4" stroke-dasharray="10 8" marker-end="none"/>
    <path d="M700 452 l -14 -8 v 16 Z" fill="#E8871E"/>
  </g>
  <g font-family="Arial, sans-serif">
    <rect x="28" y="514" width="8" height="52" fill="#E8871E"/>
    <text x="48" y="538" fill="#EDE6DA" font-size="21" font-weight="bold" letter-spacing="3">JOB PHOTO SLOT</text>
    <text x="48" y="560" fill="#7A8B99" font-size="14" letter-spacing="2">DRAINAGE / FRENCH DRAIN — REPLACE WITH REAL JOB PHOTO</text>
  </g>
  <g stroke="#EDE6DA" stroke-opacity=".25" stroke-width="2">
    <path d="M16 40 V16 H40"/> <path d="M760 16 H784 V40"/>
    <path d="M784 560 V584 H760"/> <path d="M40 584 H16 V560"/>
  </g>
</svg>