<svg xmlns="http://www.w3.org/2000/svg" viewBox="0 0 800 600" role="img" aria-label="Placeholder — EXCAVATION / SITE PREP — REPLACE WITH REAL JOB PHOTO">
  <rect width="800" height="600" fill="#16181D"/>
  <rect width="800" height="600" fill="url(#gph-excavation)" opacity=".55"/>
  <defs><linearGradient id="gph-excavation" x1="0" y1="0" x2="1" y2="1">
    <stop offset="0" stop-color="#23262E"/><stop offset="1" stop-color="#16181D"/>
  </linearGradient></defs>
  <g fill="none" stroke="#7A8B99" stroke-opacity=".14" stroke-width="1.5">
    <path d="M-20 432.0 Q 176.0 348.0 384.0 420.0 T 820 372.0"/>
    <path d="M-20 480.0 Q 200.0 408.00000000000006 416.0 468.0 T 820 432.0"/>
    <path d="M-20 360.0 Q 240.0 276.0 480.0 348.0 T 820 300.0"/>
    <path d="M-20 204.00000000000003 Q 280.0 132.0 520.0 192.0 T 820 156.0" stroke-opacity=".08"/>
  </g>

  <g>
    <rect x="0" y="470" width="800" height="6" fill="#2B2F39"/>
    <rect x="250" y="378" width="170" height="52" rx="8" fill="#2B2F39"/>
    <rect x="272" y="322" width="96" height="62" rx="6" fill="#2B2F39"/>
    <rect x="284" y="334" width="46" height="30" fill="#16181D"/>
    <rect x="236" y="404" width="200" height="42" rx="21" fill="#16181D" stroke="#7A8B99" stroke-opacity=".4" stroke-width="3"/>
    <circle cx="266" cy="425" r="12" fill="#2B2F39"/><circle cx="316" cy="425" r="12" fill="#2B2F39"/>
    <circle cx="366" cy="425" r="12" fill="#2B2F39"/><circle cx="410" cy="425" r="12" fill="#2B2F39"/>
    <path d="M400 350 L520 250" stroke="#2B2F39" stroke-width="26" stroke-linecap="round"/>
    <path d="M520 250 L610 340" stroke="#2B2F39" stroke-width="20" stroke-linecap="round"/>
    <path d="M610 340 L596 402 L648 390 Z" fill="#2B2F39"/>
    <path d="M596 402 Q622 416 648 390" stroke="#E8871E" stroke-width="5" fill="none"/>
    <path d="M580 470 q 30 -22 90 -12" stroke="#16181D" stroke-width="0" fill="#23262E"/>
    <path d="M560 470 L700 470 L672 432 L596 440 Z" fill="#23262E"/>
  </g>
  <g font-family="Arial, sans-serif">
    <rect x="28" y="514" width="8" height="52" fill="#E8871E"/>
    <text x="48" y="538" fill="#EDE6DA" font-size="21" font-weight="bold" letter-spacing="3">JOB PHOTO SLOT</text>
    <text x="48" y="560" fill="#7A8B99" font-size="14" letter-spacing="2">EXCAVATION / SITE PREP — REPLACE WITH REAL JOB PHOTO</text>
  </g>
  <g stroke="#EDE6DA" stroke-opacity=".25" stroke-width="2">
    <path d="M16 40 V16 H40"/> <path d="M760 16 H784 V40"/>
    <path d="M784 560 V584 H760"/> <path d="M40 584 H16 V560"/>
  </g>
</svg>