<svg xmlns="http://www.w3.org/2000/svg" viewBox="0 0 800 600" role="img" aria-label="Placeholder — THE MOUNTAIN — SNOWBOARDING — REPLACE WITH REAL PHOTO">
  <rect width="800" height="600" fill="#16181D"/>
  <rect width="800" height="600" fill="url(#gph-mountain)" opacity=".55"/>
  <defs><linearGradient id="gph-mountain" x1="0" y1="0" x2="1" y2="1">
    <stop offset="0" stop-color="#23262E"/><stop offset="1" stop-color="#16181D"/>
  </linearGradient></defs>
  <g fill="none" stroke="#7A8B99" stroke-opacity=".14" stroke-width="1.5">
    <path d="M-20 432.0 Q 176.0 348.0 384.0 420.0 T 820 372.0"/>
    <path d="M-20 480.0 Q 200.0 408.00000000000006 416.0 468.0 T 820 432.0"/>
    <path d="M-20 360.0 Q 240.0 276.0 480.0 348.0 T 820 300.0"/>
    <path d="M-20 204.00000000000003 Q 280.0 132.0 520.0 192.0 T 820 156.0" stroke-opacity=".08"/>
  </g>

  <g>
    <path d="M60 470 L300 180 L420 320 L520 200 L740 470 Z" fill="#2B2F39"/>
    <path d="M300 180 L340 228 L368 206 L420 320" fill="none" stroke="#EDE6DA" stroke-opacity=".35" stroke-width="5"/>
    <path d="M300 180 C 360 300 260 330 330 400 C 380 450 330 460 360 470"
          fill="none" stroke="#E8871E" stroke-width="5" stroke-dasharray="2 12" stroke-linecap="round"/>
    <rect x="330" y="452" width="64" height="14" rx="7" fill="#E8871E" transform="rotate(-18 362 459)"/>
  </g>
  <g font-family="Arial, sans-serif">
    <rect x="28" y="514" width="8" height="52" fill="#E8871E"/>
    <text x="48" y="538" fill="#EDE6DA" font-size="21" font-weight="bold" letter-spacing="3">PHOTO / VIDEO SLOT</text>
    <text x="48" y="560" fill="#7A8B99" font-size="14" letter-spacing="2">THE MOUNTAIN — SNOWBOARDING — REPLACE WITH REAL PHOTO</text>
  </g>
  <g stroke="#EDE6DA" stroke-opacity=".25" stroke-width="2">
    <path d="M16 40 V16 H40"/> <path d="M760 16 H784 V40"/>
    <path d="M784 560 V584 H760"/> <path d="M40 584 H16 V560"/>
  </g>
</svg>